<svg width="429" height="533" viewBox="0 0 429 533" fill="none" xmlns="http://www.w3.org/2000/svg">
<g clip-path="url(#clip0_759_18098)">
<rect width="430" height="932" transform="translate(-1 -31)" fill="#031D40"/>
<circle cx="214" cy="318" r="214.5" fill="url(#paint0_radial_759_18098)" stroke="#031D40"/>
<circle cx="214" cy="313.114" r="85.0114" stroke="#031D40"/>
<circle cx="214" cy="313.114" r="107" stroke="#031D40"/>
<circle cx="214" cy="313.114" r="126.545" stroke="#031D40"/>
<circle cx="214" cy="313.114" r="143.648" stroke="#031D40"/>
<circle cx="214" cy="313.114" r="161.972" stroke="#031D40"/>
<path opacity="0.2" d="M81.426 80.9129C69.6881 76.5152 60.5294 66.1153 56.5817 52.9222L55.4237 49L54.2657 52.9222C50.3706 66.1747 41.1593 76.5152 29.474 80.9129L26 82.2203L29.474 83.5277C41.2119 87.9254 50.3706 98.3253 54.2657 111.578L55.4237 115.5L56.5817 111.578C60.4768 98.3253 69.6881 87.9848 81.426 83.5277L84.9 82.2203L81.426 80.9129Z" fill="url(#paint1_linear_759_18098)"/>
<path opacity="0.2" d="M117.936 109.676C110.961 106.964 105.518 100.552 103.172 92.4182L102.484 90L101.796 92.4182C99.4817 100.589 94.0081 106.964 87.0643 109.676L85 110.482L87.0643 111.288C94.0393 113.999 99.4817 120.411 101.796 128.582L102.484 131L103.172 128.582C105.487 120.411 110.961 114.036 117.936 111.288L120 110.482L117.936 109.676Z" fill="url(#paint2_linear_759_18098)"/>
<path opacity="0.2" d="M79.9357 150.676C72.9607 147.964 67.5183 141.552 65.1725 133.418L64.4844 131L63.7962 133.418C61.4817 141.589 56.0081 147.964 49.0643 150.676L47 151.482L49.0643 152.288C56.0393 154.999 61.4817 161.411 63.7963 169.582L64.4844 172L65.1725 169.582C67.4871 161.411 72.9607 155.036 79.9357 152.288L82 151.482L79.9357 150.676Z" fill="url(#paint3_linear_759_18098)"/>
<path opacity="0.2" d="M408.426 60.9129C396.688 56.5152 387.529 46.1153 383.582 32.9222L382.424 29L381.266 32.9222C377.371 46.1747 368.159 56.5152 356.474 60.9129L353 62.2203L356.474 63.5277C368.212 67.9254 377.371 78.3253 381.266 91.5778L382.424 95.5L383.582 91.5778C387.477 78.3253 396.688 67.9848 408.426 63.5277L411.9 62.2203L408.426 60.9129Z" fill="url(#paint4_linear_759_18098)"/>
<path opacity="0.2" d="M444.936 89.6756C437.961 86.9643 432.518 80.5523 430.172 72.4182L429.484 70L428.796 72.4182C426.482 80.5889 421.008 86.9643 414.064 89.6756L412 90.4817L414.064 91.2878C421.039 93.9991 426.482 100.411 428.796 108.582L429.484 111L430.172 108.582C432.487 100.411 437.961 94.0357 444.936 91.2878L447 90.4817L444.936 89.6756Z" fill="url(#paint5_linear_759_18098)"/>
<path opacity="0.2" d="M406.936 130.676C399.961 127.964 394.518 121.552 392.172 113.418L391.484 111L390.796 113.418C388.482 121.589 383.008 127.964 376.064 130.676L374 131.482L376.064 132.288C383.039 134.999 388.482 141.411 390.796 149.582L391.484 152L392.172 149.582C394.487 141.411 399.961 135.036 406.936 132.288L409 131.482L406.936 130.676Z" fill="url(#paint6_linear_759_18098)"/>
<path opacity="0.2" d="M435.426 410.913C423.688 406.515 414.529 396.115 410.582 382.922L409.424 379L408.266 382.922C404.371 396.175 395.159 406.515 383.474 410.913L380 412.22L383.474 413.528C395.212 417.925 404.371 428.325 408.266 441.578L409.424 445.5L410.582 441.578C414.477 428.325 423.688 417.985 435.426 413.528L438.9 412.22L435.426 410.913Z" fill="url(#paint7_linear_759_18098)"/>
<g opacity="0.5">
<path fill-rule="evenodd" clip-rule="evenodd" d="M34.6243 437.5C36.1862 449.722 42.0256 456.038 52.3465 456.513C42.0254 456.988 36.1857 463.371 34.6243 475.525C33.0625 463.371 27.155 456.987 16.8335 456.513C27.1547 456.037 33.0618 449.723 34.6243 437.5Z" fill="url(#paint8_linear_759_18098)"/>
<path fill-rule="evenodd" clip-rule="evenodd" d="M58.8049 459.738C59.8236 467.683 63.6937 471.892 70.484 472.164C63.694 472.504 59.8234 476.646 58.8049 484.658C57.7862 476.645 53.9162 472.504 47.1934 472.164C53.9157 471.893 57.7859 467.683 58.8049 459.738Z" fill="url(#paint9_linear_759_18098)"/>
<path fill-rule="evenodd" clip-rule="evenodd" d="M23.8675 476.574C24.6144 482.346 27.3982 485.333 32.2874 485.537C27.3986 485.741 24.6143 488.796 23.8675 494.5C23.1206 488.796 20.3368 485.741 15.5156 485.537C20.3368 485.333 23.1206 482.346 23.8675 476.574Z" fill="url(#paint10_linear_759_18098)"/>
</g>
<path d="M123.012 162.938V180H120.07V162.938H123.012ZM133.266 162.938L126.352 171.152L122.414 175.324L121.898 172.406L124.711 168.938L129.68 162.938H133.266ZM130.102 180L124.488 171.914L126.516 169.91L133.594 180H130.102ZM138.609 177.762L141.715 167.32H144.645L140.238 180H138.41L138.609 177.762ZM136.23 167.32L139.395 177.809L139.547 180H137.719L133.289 167.32H136.23ZM149.414 167.32V180H146.578V167.32H149.414ZM146.391 163.992C146.391 163.562 146.531 163.207 146.812 162.926C147.102 162.637 147.5 162.492 148.008 162.492C148.508 162.492 148.902 162.637 149.191 162.926C149.48 163.207 149.625 163.562 149.625 163.992C149.625 164.414 149.48 164.766 149.191 165.047C148.902 165.328 148.508 165.469 148.008 165.469C147.5 165.469 147.102 165.328 146.812 165.047C146.531 164.766 146.391 164.414 146.391 163.992ZM156.633 177.762L159.738 167.32H162.668L158.262 180H156.434L156.633 177.762ZM154.254 167.32L157.418 177.809L157.57 180H155.742L151.312 167.32H154.254ZM169.84 180.234C168.902 180.234 168.055 180.082 167.297 179.777C166.547 179.465 165.906 179.031 165.375 178.477C164.852 177.922 164.449 177.27 164.168 176.52C163.887 175.77 163.746 174.961 163.746 174.094V173.625C163.746 172.633 163.891 171.734 164.18 170.93C164.469 170.125 164.871 169.438 165.387 168.867C165.902 168.289 166.512 167.848 167.215 167.543C167.918 167.238 168.68 167.086 169.5 167.086C170.406 167.086 171.199 167.238 171.879 167.543C172.559 167.848 173.121 168.277 173.566 168.832C174.02 169.379 174.355 170.031 174.574 170.789C174.801 171.547 174.914 172.383 174.914 173.297V174.504H165.117V172.477H172.125V172.254C172.109 171.746 172.008 171.27 171.82 170.824C171.641 170.379 171.363 170.02 170.988 169.746C170.613 169.473 170.113 169.336 169.488 169.336C169.02 169.336 168.602 169.438 168.234 169.641C167.875 169.836 167.574 170.121 167.332 170.496C167.09 170.871 166.902 171.324 166.77 171.855C166.645 172.379 166.582 172.969 166.582 173.625V174.094C166.582 174.648 166.656 175.164 166.805 175.641C166.961 176.109 167.188 176.52 167.484 176.871C167.781 177.223 168.141 177.5 168.562 177.703C168.984 177.898 169.465 177.996 170.004 177.996C170.684 177.996 171.289 177.859 171.82 177.586C172.352 177.312 172.812 176.926 173.203 176.426L174.691 177.867C174.418 178.266 174.062 178.648 173.625 179.016C173.188 179.375 172.652 179.668 172.02 179.895C171.395 180.121 170.668 180.234 169.84 180.234Z" fill="#FFA203"/>
<path d="M189.797 165.211L184.699 180H181.617L188.039 162.938H190.008L189.797 165.211ZM194.062 180L188.953 165.211L188.73 162.938H190.711L197.156 180H194.062ZM193.816 173.672V176.004H184.535V173.672H193.816ZM201.809 167.32V180H198.973V167.32H201.809ZM198.785 163.992C198.785 163.562 198.926 163.207 199.207 162.926C199.496 162.637 199.895 162.492 200.402 162.492C200.902 162.492 201.297 162.637 201.586 162.926C201.875 163.207 202.02 163.562 202.02 163.992C202.02 164.414 201.875 164.766 201.586 165.047C201.297 165.328 200.902 165.469 200.402 165.469C199.895 165.469 199.496 165.328 199.207 165.047C198.926 164.766 198.785 164.414 198.785 163.992ZM214.102 162.938V180H211.16V162.938H214.102ZM224.355 162.938L217.441 171.152L213.504 175.324L212.988 172.406L215.801 168.938L220.77 162.938H224.355ZM221.191 180L215.578 171.914L217.605 169.91L224.684 180H221.191ZM231.328 180.234C230.391 180.234 229.543 180.082 228.785 179.777C228.035 179.465 227.395 179.031 226.863 178.477C226.34 177.922 225.938 177.27 225.656 176.52C225.375 175.77 225.234 174.961 225.234 174.094V173.625C225.234 172.633 225.379 171.734 225.668 170.93C225.957 170.125 226.359 169.438 226.875 168.867C227.391 168.289 228 167.848 228.703 167.543C229.406 167.238 230.168 167.086 230.988 167.086C231.895 167.086 232.688 167.238 233.367 167.543C234.047 167.848 234.609 168.277 235.055 168.832C235.508 169.379 235.844 170.031 236.062 170.789C236.289 171.547 236.402 172.383 236.402 173.297V174.504H226.605V172.477H233.613V172.254C233.598 171.746 233.496 171.27 233.309 170.824C233.129 170.379 232.852 170.02 232.477 169.746C232.102 169.473 231.602 169.336 230.977 169.336C230.508 169.336 230.09 169.438 229.723 169.641C229.363 169.836 229.062 170.121 228.82 170.496C228.578 170.871 228.391 171.324 228.258 171.855C228.133 172.379 228.07 172.969 228.07 173.625V174.094C228.07 174.648 228.145 175.164 228.293 175.641C228.449 176.109 228.676 176.52 228.973 176.871C229.27 177.223 229.629 177.5 230.051 177.703C230.473 177.898 230.953 177.996 231.492 177.996C232.172 177.996 232.777 177.859 233.309 177.586C233.84 177.312 234.301 176.926 234.691 176.426L236.18 177.867C235.906 178.266 235.551 178.648 235.113 179.016C234.676 179.375 234.141 179.668 233.508 179.895C232.883 180.121 232.156 180.234 231.328 180.234ZM242.121 178.617L245.566 167.32H248.59L243.504 181.934C243.387 182.246 243.234 182.586 243.047 182.953C242.859 183.32 242.613 183.668 242.309 183.996C242.012 184.332 241.641 184.602 241.195 184.805C240.75 185.016 240.211 185.121 239.578 185.121C239.328 185.121 239.086 185.098 238.852 185.051C238.625 185.012 238.41 184.969 238.207 184.922L238.195 182.766C238.273 182.773 238.367 182.781 238.477 182.789C238.594 182.797 238.688 182.801 238.758 182.801C239.227 182.801 239.617 182.742 239.93 182.625C240.242 182.516 240.496 182.336 240.691 182.086C240.895 181.836 241.066 181.5 241.207 181.078L242.121 178.617ZM240.176 167.32L243.188 176.812L243.691 179.789L241.734 180.293L237.129 167.32H240.176ZM250.219 162H253.043V177.293L252.773 180H250.219V162ZM261.316 173.543V173.789C261.316 174.727 261.211 175.59 261 176.379C260.797 177.16 260.484 177.84 260.062 178.418C259.648 178.996 259.133 179.445 258.516 179.766C257.906 180.078 257.199 180.234 256.395 180.234C255.605 180.234 254.918 180.086 254.332 179.789C253.746 179.492 253.254 179.07 252.855 178.523C252.465 177.977 252.148 177.324 251.906 176.566C251.664 175.809 251.492 174.973 251.391 174.059V173.273C251.492 172.352 251.664 171.516 251.906 170.766C252.148 170.008 252.465 169.355 252.855 168.809C253.254 168.254 253.742 167.828 254.32 167.531C254.906 167.234 255.59 167.086 256.371 167.086C257.184 167.086 257.898 167.242 258.516 167.555C259.141 167.867 259.66 168.312 260.074 168.891C260.488 169.461 260.797 170.141 261 170.93C261.211 171.719 261.316 172.59 261.316 173.543ZM258.492 173.789V173.543C258.492 172.973 258.445 172.438 258.352 171.938C258.258 171.43 258.102 170.984 257.883 170.602C257.672 170.219 257.383 169.918 257.016 169.699C256.656 169.473 256.207 169.359 255.668 169.359C255.168 169.359 254.738 169.445 254.379 169.617C254.02 169.789 253.719 170.023 253.477 170.32C253.234 170.617 253.043 170.961 252.902 171.352C252.77 171.742 252.68 172.164 252.633 172.617V174.738C252.703 175.324 252.852 175.863 253.078 176.355C253.312 176.84 253.641 177.23 254.062 177.527C254.484 177.816 255.027 177.961 255.691 177.961C256.215 177.961 256.656 177.855 257.016 177.645C257.375 177.434 257.66 177.141 257.871 176.766C258.09 176.383 258.246 175.938 258.34 175.43C258.441 174.922 258.492 174.375 258.492 173.789ZM263.168 173.801V173.531C263.168 172.617 263.301 171.77 263.566 170.988C263.832 170.199 264.215 169.516 264.715 168.938C265.223 168.352 265.84 167.898 266.566 167.578C267.301 167.25 268.129 167.086 269.051 167.086C269.98 167.086 270.809 167.25 271.535 167.578C272.27 167.898 272.891 168.352 273.398 168.938C273.906 169.516 274.293 170.199 274.559 170.988C274.824 171.77 274.957 172.617 274.957 173.531V173.801C274.957 174.715 274.824 175.562 274.559 176.344C274.293 177.125 273.906 177.809 273.398 178.395C272.891 178.973 272.273 179.426 271.547 179.754C270.82 180.074 269.996 180.234 269.074 180.234C268.145 180.234 267.312 180.074 266.578 179.754C265.852 179.426 265.234 178.973 264.727 178.395C264.219 177.809 263.832 177.125 263.566 176.344C263.301 175.562 263.168 174.715 263.168 173.801ZM265.992 173.531V173.801C265.992 174.371 266.051 174.91 266.168 175.418C266.285 175.926 266.469 176.371 266.719 176.754C266.969 177.137 267.289 177.438 267.68 177.656C268.07 177.875 268.535 177.984 269.074 177.984C269.598 177.984 270.051 177.875 270.434 177.656C270.824 177.438 271.145 177.137 271.395 176.754C271.645 176.371 271.828 175.926 271.945 175.418C272.07 174.91 272.133 174.371 272.133 173.801V173.531C272.133 172.969 272.07 172.438 271.945 171.938C271.828 171.43 271.641 170.98 271.383 170.59C271.133 170.199 270.812 169.895 270.422 169.676C270.039 169.449 269.582 169.336 269.051 169.336C268.52 169.336 268.059 169.449 267.668 169.676C267.285 169.895 266.969 170.199 266.719 170.59C266.469 170.98 266.285 171.43 266.168 171.938C266.051 172.438 265.992 172.969 265.992 173.531ZM284.473 177.457V171.41C284.473 170.957 284.391 170.566 284.227 170.238C284.062 169.91 283.812 169.656 283.477 169.477C283.148 169.297 282.734 169.207 282.234 169.207C281.773 169.207 281.375 169.285 281.039 169.441C280.703 169.598 280.441 169.809 280.254 170.074C280.066 170.34 279.973 170.641 279.973 170.977H277.16C277.16 170.477 277.281 169.992 277.523 169.523C277.766 169.055 278.117 168.637 278.578 168.27C279.039 167.902 279.59 167.613 280.23 167.402C280.871 167.191 281.59 167.086 282.387 167.086C283.34 167.086 284.184 167.246 284.918 167.566C285.66 167.887 286.242 168.371 286.664 169.02C287.094 169.66 287.309 170.465 287.309 171.434V177.07C287.309 177.648 287.348 178.168 287.426 178.629C287.512 179.082 287.633 179.477 287.789 179.812V180H284.895C284.762 179.695 284.656 179.309 284.578 178.84C284.508 178.363 284.473 177.902 284.473 177.457ZM284.883 172.289L284.906 174.035H282.879C282.355 174.035 281.895 174.086 281.496 174.188C281.098 174.281 280.766 174.422 280.5 174.609C280.234 174.797 280.035 175.023 279.902 175.289C279.77 175.555 279.703 175.855 279.703 176.191C279.703 176.527 279.781 176.836 279.938 177.117C280.094 177.391 280.32 177.605 280.617 177.762C280.922 177.918 281.289 177.996 281.719 177.996C282.297 177.996 282.801 177.879 283.23 177.645C283.668 177.402 284.012 177.109 284.262 176.766C284.512 176.414 284.645 176.082 284.66 175.77L285.574 177.023C285.48 177.344 285.32 177.688 285.094 178.055C284.867 178.422 284.57 178.773 284.203 179.109C283.844 179.438 283.41 179.707 282.902 179.918C282.402 180.129 281.824 180.234 281.168 180.234C280.34 180.234 279.602 180.07 278.953 179.742C278.305 179.406 277.797 178.957 277.43 178.395C277.062 177.824 276.879 177.18 276.879 176.461C276.879 175.789 277.004 175.195 277.254 174.68C277.512 174.156 277.887 173.719 278.379 173.367C278.879 173.016 279.488 172.75 280.207 172.57C280.926 172.383 281.746 172.289 282.668 172.289H284.883ZM293.098 169.734V180H290.273V167.32H292.969L293.098 169.734ZM296.977 167.238L296.953 169.863C296.781 169.832 296.594 169.809 296.391 169.793C296.195 169.777 296 169.77 295.805 169.77C295.32 169.77 294.895 169.84 294.527 169.98C294.16 170.113 293.852 170.309 293.602 170.566C293.359 170.816 293.172 171.121 293.039 171.48C292.906 171.84 292.828 172.242 292.805 172.688L292.16 172.734C292.16 171.938 292.238 171.199 292.395 170.52C292.551 169.84 292.785 169.242 293.098 168.727C293.418 168.211 293.816 167.809 294.293 167.52C294.777 167.23 295.336 167.086 295.969 167.086C296.141 167.086 296.324 167.102 296.52 167.133C296.723 167.164 296.875 167.199 296.977 167.238ZM306.246 177.375V162H309.082V180H306.516L306.246 177.375ZM297.996 173.801V173.555C297.996 172.594 298.109 171.719 298.336 170.93C298.562 170.133 298.891 169.449 299.32 168.879C299.75 168.301 300.273 167.859 300.891 167.555C301.508 167.242 302.203 167.086 302.977 167.086C303.742 167.086 304.414 167.234 304.992 167.531C305.57 167.828 306.062 168.254 306.469 168.809C306.875 169.355 307.199 170.012 307.441 170.777C307.684 171.535 307.855 172.379 307.957 173.309V174.094C307.855 175 307.684 175.828 307.441 176.578C307.199 177.328 306.875 177.977 306.469 178.523C306.062 179.07 305.566 179.492 304.98 179.789C304.402 180.086 303.727 180.234 302.953 180.234C302.188 180.234 301.496 180.074 300.879 179.754C300.27 179.434 299.75 178.984 299.32 178.406C298.891 177.828 298.562 177.148 298.336 176.367C298.109 175.578 297.996 174.723 297.996 173.801ZM300.82 173.555V173.801C300.82 174.379 300.871 174.918 300.973 175.418C301.082 175.918 301.25 176.359 301.477 176.742C301.703 177.117 301.996 177.414 302.355 177.633C302.723 177.844 303.16 177.949 303.668 177.949C304.309 177.949 304.836 177.809 305.25 177.527C305.664 177.246 305.988 176.867 306.223 176.391C306.465 175.906 306.629 175.367 306.715 174.773V172.652C306.668 172.191 306.57 171.762 306.422 171.363C306.281 170.965 306.09 170.617 305.848 170.32C305.605 170.016 305.305 169.781 304.945 169.617C304.594 169.445 304.176 169.359 303.691 169.359C303.176 169.359 302.738 169.469 302.379 169.688C302.02 169.906 301.723 170.207 301.488 170.59C301.262 170.973 301.094 171.418 300.984 171.926C300.875 172.434 300.82 172.977 300.82 173.555Z" fill="white"/>
<g>
<path d="M364.106 361.211L327.106 287.211C326.428 285.856 325.043 285 323.528 285H100.069C98.5039 285 97.0825 285.913 96.4315 287.336L62.59 361.336C61.3785 363.986 63.3146 367 66.2277 367H360.528C363.501 367 365.435 363.871 364.106 361.211Z" fill="#FFA203"/>
<path d="M364.106 361.211L327.106 287.211C326.428 285.856 325.043 285 323.528 285H100.069C98.5039 285 97.0825 285.913 96.4315 287.336L62.59 361.336C61.3785 363.986 63.3146 367 66.2277 367H360.528C363.501 367 365.435 363.871 364.106 361.211Z" stroke="#FFA203"/>
</g>
<g opacity="0.3">
<rect x="99.5" y="294" width="33" height="16" rx="3" fill="white"/>
</g>
<g opacity="0.3">
<path d="M138.5 297C138.5 295.343 139.843 294 141.5 294H168.5C170.157 294 171.5 295.343 171.5 297V307C171.5 308.657 170.157 310 168.5 310H141.5C139.843 310 138.5 308.657 138.5 307V297Z" fill="white"/>
</g>
<rect opacity="0.3" x="177.5" y="294" width="33" height="16" rx="3" fill="white"/>
<g opacity="0.3">
<rect x="216.5" y="294" width="33" height="16" rx="3" fill="white"/>
</g>
<g opacity="0.3">
<rect x="255.5" y="294" width="33" height="16" rx="3" fill="white"/>
</g>
<g opacity="0.3">
<rect x="294.5" y="294" width="33" height="16" rx="3" fill="white"/>
</g>
<g opacity="0.3">
<rect x="117" y="318" width="33" height="16" rx="3" fill="white"/>
</g>
<g opacity="0.3">
<rect x="157" y="318" width="33" height="16" rx="3" fill="white"/>
</g>
<g opacity="0.3">
<rect x="197" y="318" width="33" height="16" rx="3" fill="white"/>
</g>
<g opacity="0.3">
<rect x="237" y="318" width="33" height="16" rx="3" fill="white"/>
</g>
<g opacity="0.3">
<rect x="277" y="318" width="33" height="16" rx="3" fill="white"/>
</g>
<g opacity="0.3">
<rect x="95" y="342" width="33" height="16" rx="3" fill="white"/>
</g>
<g opacity="0.3">
<rect x="136" y="342" width="33" height="16" rx="3" fill="white"/>
</g>
<g opacity="0.3">
<rect x="177" y="342" width="73" height="16" rx="3" fill="white"/>
</g>
<g opacity="0.3">
<rect x="258" y="342" width="33" height="16" rx="3" fill="white"/>
</g>
<g opacity="0.3">
<rect x="299" y="342" width="33" height="16" rx="3" fill="white"/>
</g>
<path d="M100.003 183.625C100.167 182.792 101.378 182.792 101.542 183.625L102.703 189.534C102.794 189.995 103.277 190.27 103.728 190.117L109.501 188.153C110.316 187.876 110.921 188.91 110.271 189.466L105.658 193.411C105.298 193.719 105.298 194.27 105.658 194.577L110.271 198.522C110.921 199.079 110.316 200.112 109.501 199.835L103.728 197.872C103.277 197.719 102.794 197.994 102.703 198.455L101.542 204.363C101.378 205.197 100.167 205.197 100.003 204.363L98.8424 198.455C98.7518 197.994 98.268 197.719 97.8175 197.872L92.0442 199.835C91.2295 200.112 90.624 199.079 91.2749 198.522L95.8872 194.577C96.2471 194.27 96.2471 193.719 95.8872 193.411L91.2749 189.466C90.624 188.91 91.2295 187.876 92.0442 188.153L97.8175 190.117C98.268 190.27 98.7518 189.995 98.8424 189.534L100.003 183.625Z" fill="#FFA203"/>
<path d="M346.765 377.108C346.929 376.275 348.14 376.275 348.304 377.108L349.465 383.017C349.555 383.478 350.039 383.753 350.49 383.6L356.263 381.636C357.078 381.359 357.683 382.393 357.032 382.949L352.42 386.894C352.06 387.202 352.06 387.753 352.42 388.06L357.032 392.005C357.683 392.562 357.078 393.595 356.263 393.318L350.49 391.355C350.039 391.202 349.555 391.477 349.465 391.938L348.304 397.846C348.14 398.68 346.929 398.68 346.765 397.846L345.604 391.938C345.514 391.477 345.03 391.202 344.579 391.355L338.806 393.318C337.991 393.595 337.386 392.562 338.037 392.005L342.649 388.06C343.009 387.753 343.009 387.202 342.649 386.894L338.037 382.949C337.386 382.393 337.991 381.359 338.806 381.636L344.579 383.6C345.03 383.753 345.514 383.478 345.604 383.017L346.765 377.108Z" fill="#FFA203"/>
<path d="M120.003 398.625C120.167 397.792 121.378 397.792 121.542 398.625L122.703 404.534C122.794 404.995 123.277 405.27 123.728 405.117L129.501 403.153C130.316 402.876 130.921 403.91 130.271 404.466L125.658 408.411C125.298 408.719 125.298 409.27 125.658 409.577L130.271 413.522C130.921 414.079 130.316 415.112 129.501 414.835L123.728 412.872C123.277 412.719 122.794 412.994 122.703 413.455L121.542 419.363C121.378 420.197 120.167 420.197 120.003 419.363L118.842 413.455C118.752 412.994 118.268 412.719 117.818 412.872L112.044 414.835C111.229 415.112 110.624 414.079 111.275 413.522L115.887 409.577C116.247 409.27 116.247 408.719 115.887 408.411L111.275 404.466C110.624 403.91 111.229 402.876 112.044 403.153L117.818 405.117C118.268 405.27 118.752 404.995 118.842 404.534L120.003 398.625Z" fill="#FFA203"/>
<path d="M313.437 194.825C313.664 193.725 315.336 193.725 315.563 194.825L317.167 202.617C317.292 203.225 317.96 203.588 318.582 203.386L326.558 200.797C327.683 200.431 328.519 201.794 327.62 202.528L321.249 207.731C320.752 208.137 320.752 208.863 321.249 209.269L327.62 214.472C328.519 215.206 327.683 216.569 326.558 216.203L318.582 213.614C317.96 213.412 317.292 213.775 317.167 214.383L315.563 222.175C315.336 223.275 313.664 223.275 313.437 222.175L311.833 214.383C311.708 213.775 311.04 213.412 310.418 213.614L302.442 216.203C301.317 216.569 300.481 215.206 301.38 214.472L307.751 209.269C308.248 208.863 308.248 208.137 307.751 207.731L301.38 202.528C300.481 201.794 301.317 200.431 302.442 200.797L310.418 203.386C311.04 203.588 311.708 203.225 311.833 202.617L313.437 194.825Z" fill="#FFA203"/>
<path d="M373.502 239.313C373.584 238.896 374.189 238.896 374.271 239.313L374.852 242.267C374.897 242.497 375.139 242.635 375.364 242.558L378.251 241.577C378.658 241.438 378.961 241.955 378.635 242.233L376.329 244.206C376.149 244.36 376.149 244.635 376.329 244.789L378.635 246.761C378.961 247.04 378.658 247.556 378.251 247.418L375.364 246.436C375.139 246.359 374.897 246.497 374.852 246.727L374.271 249.682C374.189 250.099 373.584 250.099 373.502 249.682L372.921 246.727C372.876 246.497 372.634 246.359 372.409 246.436L369.522 247.418C369.115 247.556 368.812 247.04 369.137 246.761L371.444 244.789C371.624 244.635 371.624 244.36 371.444 244.206L369.137 242.233C368.812 241.955 369.115 241.438 369.522 241.577L372.409 242.558C372.634 242.635 372.876 242.497 372.921 242.267L373.502 239.313Z" fill="#FFA203"/>
<g>
<circle cx="210" cy="275" r="51" fill="white"/>
</g>
<g>
<path d="M243.408 267.925C245.177 262.614 244.568 256.795 241.738 251.964C237.482 244.554 228.926 240.741 220.57 242.536C216.853 238.348 211.513 235.966 205.913 236C197.372 235.981 189.794 241.48 187.166 249.607C181.679 250.731 176.943 254.165 174.172 259.033C169.884 266.424 170.861 275.74 176.59 282.077C174.82 287.389 175.429 293.207 178.259 298.038C182.515 305.449 191.071 309.261 199.427 307.467C203.142 311.655 208.485 314.036 214.084 314C222.63 314.021 230.211 308.517 232.839 300.383C238.326 299.26 243.062 295.825 245.833 290.957C250.116 283.567 249.136 274.258 243.41 267.92L243.408 267.925ZM214.089 308.903C210.669 308.908 207.356 307.711 204.731 305.519C204.851 305.456 205.058 305.342 205.192 305.259L220.724 296.289C221.519 295.838 222.006 294.992 222.001 294.078V272.181L228.566 275.971C228.636 276.005 228.683 276.074 228.692 276.152V294.285C228.683 302.348 222.152 308.886 214.089 308.903ZM182.683 295.489C180.97 292.53 180.353 289.061 180.941 285.695C181.055 285.763 181.258 285.887 181.401 285.97L196.933 294.94C197.721 295.401 198.696 295.401 199.485 294.94L218.447 283.991V291.572C218.452 291.65 218.416 291.725 218.355 291.774L202.654 300.839C195.661 304.866 186.73 302.472 182.686 295.489L182.683 295.489ZM178.596 261.585C180.302 258.621 182.996 256.354 186.203 255.177C186.203 255.311 186.196 255.547 186.196 255.713V273.656C186.191 274.567 186.679 275.413 187.471 275.864L206.433 286.811L199.868 290.602C199.802 290.645 199.72 290.653 199.646 290.621L183.944 281.548C176.965 277.507 174.571 268.578 178.593 261.587L178.596 261.585ZM232.529 274.136L213.567 263.186L220.132 259.398C220.197 259.355 220.28 259.347 220.353 259.379L236.056 268.444C243.047 272.483 245.443 281.427 241.404 288.418C239.695 291.377 237.004 293.644 233.799 294.823V276.344C233.806 275.433 233.321 274.589 232.531 274.136H232.529ZM239.062 264.303C238.947 264.232 238.745 264.11 238.601 264.027L223.069 255.057C222.282 254.596 221.307 254.596 220.517 255.057L201.555 266.007V258.426C201.55 258.348 201.587 258.272 201.648 258.223L217.348 249.166C224.341 245.131 233.282 247.532 237.314 254.528C239.018 257.483 239.634 260.941 239.057 264.303H239.062ZM197.987 277.814L191.42 274.024C191.349 273.99 191.303 273.921 191.293 273.843V255.71C191.298 247.637 197.848 241.095 205.921 241.1C209.336 241.1 212.641 242.299 215.266 244.483C215.147 244.546 214.942 244.661 214.806 244.744L199.274 253.714C198.479 254.165 197.991 255.008 197.996 255.922L197.987 277.809V277.814ZM201.553 270.126L209.999 265.248L218.445 270.124V279.876L209.999 284.751L201.553 279.876V270.126Z" fill="#FFA203"/>
</g>
</g>
<defs>
<radialGradient id="paint0_radial_759_18098" cx="0" cy="0" r="1" gradientUnits="userSpaceOnUse" gradientTransform="translate(214 318) rotate(90) scale(215)">
<stop stop-color="#FFA203"/>
<stop offset="1" stop-color="#333333" stop-opacity="0"/>
</radialGradient>
<linearGradient id="paint1_linear_759_18098" x1="24.4314" y1="43.841" x2="89.0848" y2="106.596" gradientUnits="userSpaceOnUse">
<stop stop-color="#97E0FF"/>
<stop offset="1" stop-color="#1075FF"/>
</linearGradient>
<linearGradient id="paint2_linear_759_18098" x1="84.0679" y1="86.8193" x2="123.859" y2="124.044" gradientUnits="userSpaceOnUse">
<stop stop-color="#97E0FF"/>
<stop offset="1" stop-color="#1075FF"/>
</linearGradient>
<linearGradient id="paint3_linear_759_18098" x1="46.0679" y1="127.819" x2="85.8586" y2="165.044" gradientUnits="userSpaceOnUse">
<stop stop-color="#97E0FF"/>
<stop offset="1" stop-color="#1075FF"/>
</linearGradient>
<linearGradient id="paint4_linear_759_18098" x1="351.431" y1="23.841" x2="416.085" y2="86.5962" gradientUnits="userSpaceOnUse">
<stop stop-color="#97E0FF"/>
<stop offset="1" stop-color="#1075FF"/>
</linearGradient>
<linearGradient id="paint5_linear_759_18098" x1="411.068" y1="66.8193" x2="450.859" y2="104.044" gradientUnits="userSpaceOnUse">
<stop stop-color="#97E0FF"/>
<stop offset="1" stop-color="#1075FF"/>
</linearGradient>
<linearGradient id="paint6_linear_759_18098" x1="373.068" y1="107.819" x2="412.859" y2="145.044" gradientUnits="userSpaceOnUse">
<stop stop-color="#97E0FF"/>
<stop offset="1" stop-color="#1075FF"/>
</linearGradient>
<linearGradient id="paint7_linear_759_18098" x1="378.431" y1="373.841" x2="443.085" y2="436.596" gradientUnits="userSpaceOnUse">
<stop stop-color="#97E0FF"/>
<stop offset="1" stop-color="#1075FF"/>
</linearGradient>
<linearGradient id="paint8_linear_759_18098" x1="13.1041" y1="432.966" x2="68.3143" y2="493.47" gradientUnits="userSpaceOnUse">
<stop stop-color="#97E0FF"/>
<stop offset="1" stop-color="#1075FF"/>
</linearGradient>
<linearGradient id="paint9_linear_759_18098" x1="18.5425" y1="428.004" x2="73.7521" y2="488.508" gradientUnits="userSpaceOnUse">
<stop stop-color="#97E0FF"/>
<stop offset="1" stop-color="#1075FF"/>
</linearGradient>
<linearGradient id="paint10_linear_759_18098" x1="-7.17991" y1="451.475" x2="48.0303" y2="511.98" gradientUnits="userSpaceOnUse">
<stop stop-color="#97E0FF"/>
<stop offset="1" stop-color="#1075FF"/>
</linearGradient>
<clipPath id="clip0_759_18098">
<rect width="430" height="932" fill="white" transform="translate(-1 -31)"/>
</clipPath>
</defs>
</svg>
