<svg width="24" height="24" viewBox="0 0 24 24" fill="none" xmlns="http://www.w3.org/2000/svg">
<path fill-rule="evenodd" clip-rule="evenodd" d="M22.0313 14.1114C21.2778 13.6773 20.8099 12.8687 20.8099 12.0001C20.8099 11.1319 21.2778 10.3233 22.0291 9.88963C22.8002 9.44633 23.1209 8.52524 22.7914 7.69968C22.3784 6.65685 21.816 5.68283 21.124 4.8043C20.5726 4.10483 19.6148 3.92165 18.8438 4.3678C18.0925 4.8043 17.1567 4.80561 16.4032 4.37108C15.6519 3.93655 15.1862 3.1266 15.1884 2.25646C15.1884 1.3663 14.5513 0.627552 13.6704 0.500146C12.5632 0.339786 11.4385 0.340677 10.3269 0.503427C9.44821 0.631724 8.81118 1.37005 8.81334 2.25843C8.81334 3.12749 8.34759 3.93697 7.59632 4.37108C6.84281 4.80515 5.9092 4.80426 5.15573 4.36822C4.38468 3.92207 3.42689 4.10615 2.8755 4.80561C2.53279 5.24146 2.21643 5.7074 1.93748 6.19133C1.65848 6.67443 1.41464 7.18077 1.20815 7.69546C0.876417 8.52233 1.19718 9.44474 1.96823 9.88916C2.72175 10.3228 3.18965 11.1319 3.18965 12C3.18965 12.8682 2.72175 13.6766 1.97043 14.1109C1.19939 14.5543 0.878667 15.4749 1.20815 16.3002C1.62117 17.3437 2.18353 18.3178 2.8755 19.1958C3.42689 19.8952 4.38468 20.0784 5.15573 19.6323C5.90704 19.1958 6.84285 19.1949 7.59632 19.629C8.34759 20.0635 8.81334 20.8735 8.81334 21.7436C8.81114 22.6335 9.45037 23.3723 10.3291 23.5C10.8805 23.5797 11.4341 23.6195 11.9876 23.6195C12.55 23.6195 13.1124 23.5786 13.6725 23.4966C14.5513 23.3681 15.1883 22.6304 15.1883 21.7421C15.1861 20.8726 15.6518 20.0631 16.4031 19.629C17.1566 19.1949 18.0902 19.1958 18.8437 19.6318C19.6147 20.078 20.5725 19.8943 21.1239 19.1945C21.4666 18.7584 21.783 18.2924 22.0619 17.8092C22.3387 17.3261 22.587 16.8197 22.7913 16.3046C23.1231 15.4777 22.8024 14.5551 22.0313 14.1114ZM14.9885 13.7261C14.5293 14.5244 13.7846 15.0958 12.8928 15.3343C12.0031 15.5729 11.0716 15.4506 10.2742 14.9892C8.62664 14.0376 8.05987 11.9227 9.01106 10.2741C9.64814 9.16818 10.8124 8.54915 12.0052 8.54915C12.5918 8.54915 13.1827 8.69765 13.7253 9.01091C15.3729 9.96233 15.9397 12.0778 14.9885 13.7261Z" fill="#808080"/>
</svg>
