<svg width="24" height="24" viewBox="0 0 24 24" fill="none" xmlns="http://www.w3.org/2000/svg">
<path d="M22.5 6.00005V13.5C22.4959 15.2573 21.9773 16.975 21.0084 18.441C20.0395 19.9071 18.6626 21.0574 17.0475 21.75C17.1826 21.3904 17.2512 21.0092 17.25 20.625V16.125C17.2454 14.3747 16.8823 12.6439 16.1832 11.0393C15.4841 9.43468 14.4637 7.99025 13.185 6.79505C14.0381 6.2157 14.9668 5.7564 15.945 5.43005L16.3125 5.31005L20.1 4.20755C20.3784 4.12075 20.6735 4.10202 20.9606 4.15291C21.2477 4.20381 21.5185 4.32285 21.75 4.50005C21.9846 4.67305 22.1749 4.89918 22.3053 5.15991C22.4357 5.42064 22.5024 5.70855 22.5 6.00005ZM7.67252 5.31005L3.92252 4.20755C3.64224 4.12031 3.34534 4.10036 3.05591 4.14934C2.76647 4.19832 2.49266 4.31484 2.25669 4.48945C2.02072 4.66405 1.82923 4.89182 1.69776 5.15429C1.56629 5.41675 1.49855 5.7065 1.50002 6.00005V13.5C1.50002 15.887 2.44824 18.1762 4.13606 19.864C5.82389 21.5518 8.11308 22.5 10.5 22.5H13.875C14.3723 22.5 14.8492 22.3025 15.2008 21.9509C15.5525 21.5992 15.75 21.1223 15.75 20.625V16.125C15.7426 13.6942 14.9533 11.3302 13.4986 9.38259C12.044 7.43498 10.0013 6.0071 7.67252 5.31005ZM15.4725 4.00505L15.6075 3.96005C14.8317 3.08255 13.8948 2.36203 12.8475 1.83755C12.5851 1.70793 12.2964 1.6405 12.0038 1.6405C11.7111 1.6405 11.4224 1.70793 11.16 1.83755C10.1084 2.36184 9.16855 3.08521 8.39252 3.96755C9.68776 4.3813 10.9064 5.00457 12 5.81255C13.0596 5.03819 14.2304 4.42878 15.4725 4.00505Z" fill="#808080"/>
</svg>
